<svg xmlns="http://www.w3.org/2000/svg" viewBox="0 0 145.05 22.7"><title>Asset 2</title><g data-name="Layer 1"><path d="M38.35 15.71v.76h-2.76l-2.18-4h-1.57v3l1.54.2v.76H28.7l-.09-.5 1.39-.52V7.18l-1.12-.11v-.79l4.63-.1a4.34 4.34 0 0 1 2.81.87 2.72 2.72 0 0 1 1.08 2.21 3 3 0 0 1-.6 1.74 3.34 3.34 0 0 1-1.57 1.17l2.09 3.4zm-6.52-4.41a7 7 0 0 0 1.19.12 2.27 2.27 0 0 0 1.81-.62 2.3 2.3 0 0 0 .53-1.54 2.12 2.12 0 0 0-1.08-2l-2.45.23zM43.7 6a4.63 4.63 0 0 1 3.57 1.54 5.7 5.7 0 0 1 1.4 4 5.38 5.38 0 0 1-1.36 3.84 4.58 4.58 0 0 1-3.51 1.42 4.69 4.69 0 0 1-3.56-1.47 5.4 5.4 0 0 1-1.4-3.87 5.68 5.68 0 0 1 1.37-3.94A4.47 4.47 0 0 1 43.7 6zm-1.53 1.43a3.1 3.1 0 0 0-.93 1.49 7 7 0 0 0-.35 2.26 5.25 5.25 0 0 0 .87 3.16 2.74 2.74 0 0 0 2.33 1.19 4.07 4.07 0 0 0 1-.14 3.22 3.22 0 0 0 1.06-1.5 6.32 6.32 0 0 0 .41-2.32 5.44 5.44 0 0 0-.85-3.18 2.63 2.63 0 0 0-2.21-1.21 3.88 3.88 0 0 0-1.33.25zM55.13 6a4.62 4.62 0 0 1 3.57 1.51 5.69 5.69 0 0 1 1.4 4 5.38 5.38 0 0 1-1.36 3.84 4.58 4.58 0 0 1-3.51 1.45 4.69 4.69 0 0 1-3.56-1.47 5.4 5.4 0 0 1-1.4-3.87 5.68 5.68 0 0 1 1.37-3.94A4.47 4.47 0 0 1 55.13 6zM53.6 7.44a3.11 3.11 0 0 0-.93 1.49 7.06 7.06 0 0 0-.35 2.25 5.25 5.25 0 0 0 .87 3.16 2.74 2.74 0 0 0 2.33 1.19 4.08 4.08 0 0 0 1-.14 3.22 3.22 0 0 0 1.06-1.5 6.29 6.29 0 0 0 .42-2.32 5.45 5.45 0 0 0-.85-3.18A2.63 2.63 0 0 0 55 7.18a3.88 3.88 0 0 0-1.37.25zM74.38 15.74v.73H69.8l-.09-.5a9.16 9.16 0 0 1 1.29-.56v-4.88l.22-2.64-3 8.29-1.57.36-3.1-8.61.26 2.56-.11 5 1.32.22v.73h-4.1l-.09-.5a13.22 13.22 0 0 1 1.37-.58l.26-8.12L61.17 7v-.69h3.63l2.88 8.06 2.92-8.06h3.27l.09.5a7 7 0 0 1-1.22.51l.14 8.15zM82.66 13.72a2.75 2.75 0 0 1-1 2.21 4 4 0 0 1-2.61.86 7.21 7.21 0 0 1-1.91-.28 4.19 4.19 0 0 1-1.6-.76v-.57a10.75 10.75 0 0 1 .2-2.17h1l.5 2.06a4.44 4.44 0 0 0 2.34.59h.34a1.5 1.5 0 0 0 .87-1.45 1.74 1.74 0 0 0-1.06-1.48l-2.46-1.26A2.88 2.88 0 0 1 75.6 9a2.55 2.55 0 0 1 1.08-2.13A4.41 4.41 0 0 1 79.42 6a9 9 0 0 1 2.82.51A11.06 11.06 0 0 1 82 9.28h-1l-.3-1.62a4 4 0 0 0-2.06-.51h-.47a1.47 1.47 0 0 0-.73 1.34q0 .83 1.12 1.42l2.34 1.15a3 3 0 0 1 1.76 2.66zM99.53 15.71v.76H95l-.09-.5 1.32-.56V12h-4.66v3.51l1.48.19v.76h-4.6l-.1-.5 1.33-.56V7.18L88.48 7v-.74h4.32l.09.5a10.26 10.26 0 0 1-1.32.56v3.46h4.63v-3.6L95 7v-.74h4.32l.09.5a10.22 10.22 0 0 1-1.32.56v8.19zM104.5 6a4.62 4.62 0 0 1 3.57 1.54 5.69 5.69 0 0 1 1.4 4 5.39 5.39 0 0 1-1.36 3.84 4.58 4.58 0 0 1-3.51 1.45 4.69 4.69 0 0 1-3.6-1.5 5.41 5.41 0 0 1-1.4-3.87 5.68 5.68 0 0 1 1.4-3.94A4.47 4.47 0 0 1 104.5 6zM103 7.43a3.1 3.1 0 0 0-1 1.49 7 7 0 0 0-.35 2.27 5.24 5.24 0 0 0 .87 3.16 2.74 2.74 0 0 0 2.33 1.19 4.09 4.09 0 0 0 1-.14 3.23 3.23 0 0 0 1.06-1.5 6.29 6.29 0 0 0 .41-2.32 5.44 5.44 0 0 0-.85-3.18 2.63 2.63 0 0 0-2.21-1.22 3.88 3.88 0 0 0-1.26.25zM119.78 6.18v.4a16 16 0 0 1-.22 2.56h-1.06l-.2-1.76-2.3-.12v8.23l1.7.22v.76h-5.13l-.09-.5 1.14-.44.5-.17v-8.1l-2.28.12-.2 1.76h-1a14.68 14.68 0 0 1-.22-2.46v-.5l4.71.06q2.46.01 4.65-.06zM128.18 13.53a16.76 16.76 0 0 1-.19 2.95h-7.7l-.09-.5 1.33-.56V7.18l-1.12-.11v-.78H128v.44a13.19 13.19 0 0 1-.22 2.32h-1.08l-.23-1.5-3.1-.2v3.53l3.48-.28v1.47l-3.48-.14v3.4l3.23-.19.47-1.68zM137.4 13.12a18.13 18.13 0 0 1-.2 3.35h-8l-.09-.5 1.32-.56V7.18l-1.2-.18v-.74h4.32l.09.5a10.53 10.53 0 0 1-1.32.56v8l3.44-.22.51-2zM145 13.72a2.74 2.74 0 0 1-1 2.21 4 4 0 0 1-2.61.86 7.21 7.21 0 0 1-1.91-.28 4.17 4.17 0 0 1-1.6-.76v-.57a10.58 10.58 0 0 1 .2-2.17h1l.5 2.06a4.44 4.44 0 0 0 2.34.59h.34a1.5 1.5 0 0 0 .87-1.45 1.74 1.74 0 0 0-1.06-1.48l-2.46-1.26A2.88 2.88 0 0 1 138 8.91a2.55 2.55 0 0 1 1-2.12 4.41 4.41 0 0 1 2.71-.79 9 9 0 0 1 2.82.51 11.06 11.06 0 0 1-.2 2.76h-1L143 7.62a4 4 0 0 0-2-.51h-.47a1.48 1.48 0 0 0-.73 1.34q0 .83 1.12 1.42l2.31 1.13a3 3 0 0 1 1.77 2.72zM11.35 1.15a10.19 10.19 0 1 0 10.19 10.19A10.19 10.19 0 0 0 11.35 1.15zm2.51 15.22h-5l1.35-5.31a2.51 2.51 0 0 1 1.13-4.73h.07a2.51 2.51 0 0 1 1.13 4.73z"/><path d="M11.35 22.7A11.35 11.35 0 1 1 22.7 11.34 11.35 11.35 0 0 1 11.35 22.7zm0-22A10.65 10.65 0 1 0 22 11.38 10.67 10.67 0 0 0 11.35.69z"/></g></svg>